<svg width="24" height="24" viewBox="0 0 24 24" fill="none" xmlns="http://www.w3.org/2000/svg">
<path d="M21.7066 2.29279C21.5191 2.10532 21.2648 2 20.9996 2C20.7344 2 20.4801 2.10532 20.2926 2.29279L17.0926 5.49278C15.5694 4.52546 13.804 4.00794 11.9996 3.99979C7.67359 3.99979 3.77259 7.00478 2.06159 11.6538C1.97862 11.877 1.97862 12.1226 2.06159 12.3458C2.736 14.2247 3.84758 15.9162 5.30459 17.2808L2.29259 20.2928C2.19708 20.385 2.1209 20.4954 2.06849 20.6174C2.01608 20.7394 1.9885 20.8706 1.98734 21.0034C1.98619 21.1362 2.01149 21.2678 2.06177 21.3907C2.11205 21.5136 2.18631 21.6253 2.2802 21.7192C2.37409 21.8131 2.48574 21.8873 2.60864 21.9376C2.73154 21.9879 2.86321 22.0132 2.99599 22.012C3.12877 22.0109 3.25999 21.9833 3.382 21.9309C3.504 21.8785 3.61435 21.8023 3.70659 21.7068L6.90659 18.5068C8.4298 19.4741 10.1952 19.9916 11.9996 19.9998C16.3256 19.9998 20.2266 16.9998 21.9376 12.3458C22.0206 12.1226 22.0206 11.877 21.9376 11.6538C21.2646 9.77541 20.1548 8.08391 18.6996 6.71878L21.7116 3.70679C21.8984 3.5186 22.0028 3.26392 22.0019 2.99875C22.0009 2.73359 21.8947 2.47965 21.7066 2.29279ZM6.73359 15.8518C5.56613 14.7858 4.65592 13.4687 4.07159 11.9998C5.54859 8.34278 8.62559 5.99978 11.9996 5.99978C13.2715 6.00539 14.5211 6.33363 15.6316 6.95378L14.0186 8.56678C13.409 8.19918 12.7114 8.00327 11.9996 7.99978C10.9387 7.99978 9.92131 8.42121 9.17117 9.17135C8.42102 9.9215 7.99959 10.9389 7.99959 11.9998C8.00308 12.7116 8.19899 13.4092 8.56659 14.0188L6.73359 15.8518ZM13.9246 11.4888C13.972 11.6551 13.9972 11.8269 13.9996 11.9998C13.9996 12.5302 13.7889 13.0389 13.4138 13.414C13.0387 13.7891 12.53 13.9998 11.9996 13.9998C11.8267 13.9974 11.6549 13.9722 11.4886 13.9248L13.9246 11.4888ZM10.0746 12.5108C10.0272 12.3445 10.0019 12.1727 9.99959 11.9998C9.99959 11.4693 10.2103 10.9606 10.5854 10.5856C10.9605 10.2105 11.4692 9.99978 11.9996 9.99978C12.1725 10.0021 12.3443 10.0274 12.5106 10.0748L10.0746 12.5108ZM19.9276 11.9998C18.4506 15.6568 15.3736 17.9998 11.9996 17.9998C10.7277 17.9942 9.47805 17.6659 8.36759 17.0458L9.98059 15.4328C10.5902 15.8004 11.2878 15.9963 11.9996 15.9998C13.0605 15.9998 14.0779 15.5784 14.828 14.8282C15.5782 14.0781 15.9996 13.0606 15.9996 11.9998C15.9961 11.288 15.8002 10.5903 15.4326 9.98078L17.2656 8.14778C18.4331 9.21374 19.3433 10.5308 19.9276 11.9998Z" fill="#272727"/>
</svg>
